<?xml version="1.0" encoding="UTF-8"?>
<svg id="Laag_1" data-name="Laag 1" xmlns="http://www.w3.org/2000/svg" version="1.1" viewBox="0 0 15 15">
  <defs>
    <style>
      .cls-1 {
        fill: none;
        stroke: aqua;
      }
    </style>
  </defs>
  <path class="cls-1" d="M9.6,8.4l-5.1,3.2M7.5,9.7c-1.6,1-3.8.5-4.8-1.1-1-1.6-.5-3.8,1.1-4.8l4.2-2.6c1.6-1,3.8-.5,4.8,1.1.9,1.4.6,3.2-.5,4.3M7.5,5.3c1.6-1,3.8-.5,4.8,1.1s.5,3.8-1.1,4.8l-4.2,2.6c-1.6,1-3.8.5-4.8-1.1-.9-1.4-.6-3.1.4-4.3M5.4,6.6l5.1-3.2"/>
</svg>