<?xml version="1.0" encoding="UTF-8"?>
<svg id="Laag_1" data-name="Laag 1" xmlns="http://www.w3.org/2000/svg" viewBox="0 0 691.8 462.04">
  <defs>
    <style>
      .cls-1 {
        fill: #fff;
        stroke-width: 0px;
      }
    </style>
  </defs>
  <path class="cls-1" d="M674.51,445.3c.98-1.04,2.31-1.56,3.63-1.56,1.23,0,2.47.45,3.43,1.37,2.89,2.73,5.82,5.54,8.71,8.35,1.98,1.92,2.03,5.09.1,7.07-1.92,1.98-5.09,2.03-7.07.1-2.86-2.78-5.76-5.56-8.62-8.26-2.01-1.9-2.09-5.06-.2-7.07Z"/>
  <path class="cls-1" d="M623.97,396.35c1.1,0,2.21.36,3.14,1.11,3.08,2.49,6.22,5.06,9.33,7.65,2.12,1.76,2.42,4.92.65,7.04-1.76,2.12-4.92,2.42-7.04.65-3.08-2.56-6.19-5.1-9.23-7.56-2.15-1.74-2.48-4.88-.75-7.03.99-1.22,2.43-1.86,3.89-1.86Z"/>
  <path class="cls-1" d="M424.73,277.88c-1.14,2.52-4.1,3.64-6.61,2.5-3.6-1.63-7.27-3.25-10.91-4.84-2.53-1.1-3.69-4.05-2.58-6.58.82-1.88,2.66-3,4.59-3,.67,0,1.35.13,2,.42,3.68,1.61,7.39,3.25,11.03,4.9,2.52,1.14,3.64,4.1,2.5,6.61Z"/>
  <path class="cls-1" d="M355.18,244.05c2.6.94,3.94,3.8,3,6.4-.94,2.6-3.8,3.94-6.4,3-3.72-1.35-7.51-2.69-11.25-3.98-2.61-.9-3.99-3.75-3.09-6.36.72-2.07,2.65-3.36,4.72-3.36.54,0,1.1.09,1.64.28,3.78,1.31,7.61,2.67,11.37,4.03Z"/>
  <path class="cls-1" d="M279.73,361.01c3.54-1.31,7.06-2.85,10.47-4.58.72-.37,1.49-.54,2.25-.54,1.83,0,3.59,1,4.47,2.74,1.25,2.46.26,5.47-2.21,6.72-3.74,1.89-7.61,3.58-11.5,5.03-2.6.96-5.47-.36-6.43-2.95-.96-2.59.36-5.47,2.95-6.43Z"/>
  <path class="cls-1" d="M347.72,169.07c.68-.32,1.4-.47,2.1-.47,1.89,0,3.69,1.07,4.54,2.89,1.74,3.75,3.36,7.57,4.81,11.38.98,2.58-.31,5.47-2.89,6.45-2.58.98-5.47-.31-6.45-2.89-1.36-3.58-2.89-7.19-4.53-10.72-1.16-2.5-.08-5.48,2.43-6.64Z"/>
  <path class="cls-1" d="M361.35,202.63c2.3,0,4.37,1.6,4.88,3.94.5,2.31.96,4.66,1.36,6.99.3,1.72.56,3.49.79,5.26.36,2.74-1.57,5.25-4.31,5.61-2.75.35-5.25-1.57-5.61-4.31-.21-1.63-.46-3.27-.73-4.86-.38-2.18-.8-4.39-1.28-6.55-.59-2.7,1.12-5.36,3.82-5.95.36-.08.72-.12,1.07-.12Z"/>
  <path class="cls-1" d="M334.19,325.76c-2.25-1.6-2.77-4.72-1.17-6.97,2.22-3.12,4.35-6.38,6.32-9.7.93-1.57,2.6-2.45,4.3-2.45.87,0,1.75.23,2.55.7,2.38,1.41,3.16,4.48,1.75,6.85-2.11,3.56-4.39,7.06-6.78,10.4-1.6,2.25-4.73,2.77-6.97,1.17Z"/>
  <path class="cls-1" d="M328.53,138.67c.89-.65,1.92-.97,2.95-.97,1.54,0,3.06.71,4.04,2.05,2.43,3.32,4.77,6.74,6.96,10.15,1.49,2.33.81,5.42-1.52,6.91-2.33,1.49-5.42.81-6.91-1.52-2.07-3.24-4.29-6.48-6.6-9.64-1.63-2.23-1.15-5.36,1.08-6.99Z"/>
  <path class="cls-1" d="M325.02,343.49c-2.99,2.92-6.13,5.71-9.33,8.28-2.15,1.73-5.3,1.39-7.03-.76-1.73-2.15-1.39-5.3.76-7.03,2.95-2.37,5.84-4.94,8.61-7.64.97-.95,2.23-1.42,3.49-1.42s2.6.5,3.58,1.51c1.93,1.98,1.89,5.14-.08,7.07Z"/>
  <path class="cls-1" d="M368.21,256.02c-.37,2.74-2.89,4.65-5.62,4.29-2.74-.37-4.66-2.89-4.29-5.62.52-3.83.87-7.71,1.06-11.53.13-2.67,2.34-4.75,4.99-4.75.08,0,.17,0,.25,0,2.76.14,4.88,2.48,4.75,5.24-.2,4.1-.59,8.26-1.14,12.37Z"/>
  <path class="cls-1" d="M457.16,293.5c-1.23,2.47-4.23,3.47-6.71,2.24-3.54-1.77-7.15-3.54-10.72-5.26-2.49-1.2-3.53-4.19-2.33-6.68.86-1.79,2.65-2.83,4.51-2.83.73,0,1.47.16,2.17.5,3.6,1.74,7.25,3.53,10.83,5.32,2.47,1.23,3.48,4.24,2.24,6.71Z"/>
  <path class="cls-1" d="M307.88,228.75c.45,0,.91.06,1.37.19,3.71,1.05,7.51,2.19,11.63,3.48,2.63.83,4.1,3.63,3.28,6.27-.82,2.63-3.63,4.11-6.27,3.28-4.03-1.26-7.75-2.37-11.37-3.4-2.66-.75-4.2-3.52-3.45-6.17.62-2.2,2.63-3.64,4.81-3.64Z"/>
  <path class="cls-1" d="M349.53,288.27c1.41-3.58,2.7-7.27,3.82-10.96.66-2.16,2.64-3.54,4.78-3.54.48,0,.97.07,1.46.22,2.64.81,4.13,3.6,3.33,6.24-1.2,3.94-2.57,7.88-4.08,11.7-1.01,2.57-3.92,3.83-6.48,2.82-2.57-1.01-3.83-3.92-2.82-6.48Z"/>
  <path class="cls-1" d="M375.94,252.2c.61,0,1.22.11,1.82.34,3.72,1.45,7.49,2.96,11.21,4.47,2.56,1.04,3.79,3.96,2.75,6.51-1.04,2.56-3.95,3.79-6.51,2.75-3.68-1.49-7.41-2.98-11.09-4.42-2.57-1-3.84-3.91-2.84-6.48.77-1.97,2.66-3.18,4.66-3.18Z"/>
  <path class="cls-1" d="M520.11,328.41c-1.42,2.37-4.48,3.14-6.86,1.72-3.4-2.03-6.86-4.07-10.28-6.07-2.39-1.39-3.2-4.45-1.81-6.84.93-1.6,2.6-2.49,4.33-2.49.85,0,1.72.22,2.51.68,3.46,2.01,6.96,4.07,10.39,6.13,2.37,1.42,3.14,4.49,1.72,6.86Z"/>
  <path class="cls-1" d="M273.38,223.91c3.92.4,8.01.92,12.14,1.54,2.71.41,4.48,2.44,3.96,4.53-.52,2.1-3.14,3.47-5.86,3.07-3.94-.59-7.82-1.08-11.55-1.46-2.74-.28-4.66-2.22-4.3-4.34.33-1.95,2.48-3.36,4.95-3.36.22,0,.44.01.66.03Z"/>
  <path class="cls-1" d="M85.7,44.32c-3.94-.19-7.95-.36-11.91-.49-2.76-.09-4.92-2.4-4.83-5.16.09-2.7,2.31-4.84,4.99-4.84.06,0,.11,0,.17,0,4.02.13,8.08.3,12.07.49,2.76.13,4.88,2.48,4.75,5.24-.13,2.76-2.5,4.88-5.24,4.75Z"/>
  <path class="cls-1" d="M651.51,419.52c1.17,0,2.34.41,3.29,1.24,2.99,2.61,6.02,5.3,9.03,8,2.06,1.84,2.23,5.01.38,7.06-1.84,2.06-5.01,2.22-7.06.38-2.97-2.67-5.98-5.33-8.93-7.92-2.08-1.82-2.29-4.98-.47-7.06.99-1.13,2.37-1.71,3.77-1.71Z"/>
  <path class="cls-1" d="M602.07,390.46c-3.15-2.42-6.35-4.84-9.52-7.2-2.21-1.65-2.67-4.79-1.01-7,.98-1.31,2.49-2.01,4.01-2.01,1.04,0,2.09.32,2.99.99,3.2,2.39,6.44,4.84,9.62,7.28,2.19,1.68,2.61,4.82.92,7.01-1.68,2.19-4.82,2.61-7.01.92Z"/>
  <path class="cls-1" d="M166.4,291.97c-.26,2.75-2.71,4.78-5.45,4.51-2.75-.26-4.77-2.7-4.51-5.45.27-2.82.72-5.63,1.34-8.36.33-1.46.73-2.93,1.16-4.38.65-2.16,2.64-3.55,4.78-3.55.48,0,.97.07,1.45.22,2.64.8,4.14,3.59,3.33,6.24-.37,1.22-.7,2.47-.99,3.71-.53,2.3-.91,4.68-1.14,7.06Z"/>
  <path class="cls-1" d="M550.54,347.64c-1.51,2.31-4.61,2.97-6.92,1.46-3.33-2.17-6.71-4.34-10.04-6.45-2.33-1.48-3.03-4.57-1.55-6.9.95-1.5,2.57-2.33,4.23-2.33.92,0,1.84.25,2.67.78,3.37,2.14,6.79,4.33,10.15,6.52,2.31,1.51,2.97,4.61,1.46,6.92Z"/>
  <path class="cls-1" d="M126.83,42.51c-.28,2.75-2.73,4.75-5.48,4.47-3.9-.4-7.89-.76-11.86-1.09-2.75-.23-4.8-2.64-4.57-5.4.22-2.61,2.4-4.59,4.98-4.59.14,0,.28,0,.42.02,4.03.33,8.08.71,12.04,1.11,2.75.28,4.75,2.73,4.47,5.48Z"/>
  <path class="cls-1" d="M231.82,66.5c-.99,2.58-3.88,3.86-6.46,2.87-3.54-1.36-7.27-2.7-11.08-3.96-2.62-.87-4.04-3.7-3.17-6.32.7-2.1,2.65-3.42,4.74-3.42.52,0,1.05.08,1.58.26,3.96,1.32,7.83,2.7,11.52,4.12,2.58.99,3.86,3.88,2.87,6.46Z"/>
  <path class="cls-1" d="M257.23,84.41c-3.39-1.91-6.89-3.77-10.38-5.53-2.47-1.24-3.46-4.24-2.23-6.71.88-1.75,2.64-2.76,4.47-2.76.75,0,1.52.17,2.24.53,3.64,1.83,7.27,3.76,10.81,5.75,2.4,1.36,3.26,4.41,1.9,6.81s-4.41,3.26-6.81,1.9Z"/>
  <path class="cls-1" d="M197.65,55.2c-.67,2.68-3.39,4.3-6.07,3.63-3.74-.94-7.62-1.86-11.53-2.71-2.7-.59-4.4-3.26-3.81-5.96.51-2.34,2.58-3.93,4.88-3.93.35,0,.72.04,1.08.12,4.01.88,7.99,1.82,11.83,2.78,2.68.67,4.3,3.39,3.63,6.07Z"/>
  <path class="cls-1" d="M162.48,47.54c-.45,2.72-3.03,4.57-5.75,4.12-3.84-.63-7.8-1.24-11.75-1.81-2.73-.39-4.63-2.92-4.25-5.65.35-2.5,2.49-4.3,4.94-4.3.23,0,.47.02.71.05,4.03.57,8.06,1.19,11.97,1.84,2.72.45,4.57,3.02,4.12,5.75Z"/>
  <path class="cls-1" d="M198.14,238.41c-1.27-2.45-.32-5.47,2.13-6.74,3.7-1.92,7.58-3.64,11.52-5.11.58-.21,1.17-.32,1.75-.32,2.03,0,3.94,1.24,4.69,3.25.96,2.59-.35,5.47-2.94,6.43-3.56,1.33-7.06,2.88-10.41,4.62-2.45,1.27-5.47.32-6.74-2.13Z"/>
  <path class="cls-1" d="M319.85,120.82c1.88,2.02,1.77,5.19-.26,7.07-2.02,1.88-5.18,1.77-7.07-.26-2.63-2.83-5.4-5.64-8.22-8.36-1.99-1.92-2.05-5.08-.14-7.07.98-1.02,2.29-1.53,3.6-1.53s2.5.46,3.47,1.4c2.95,2.84,5.85,5.79,8.61,8.75Z"/>
  <path class="cls-1" d="M163.26,328.61c-1.81-3.9-3.3-7.94-4.44-12.01-.74-2.66.82-5.42,3.48-6.16.45-.12.9-.18,1.34-.18,2.19,0,4.2,1.45,4.81,3.66.99,3.55,2.29,7.07,3.87,10.48,1.16,2.5.08,5.48-2.43,6.64-2.51,1.17-5.48.08-6.64-2.43Z"/>
  <path class="cls-1" d="M469.61,299.91c.9-1.69,2.63-2.66,4.42-2.66.79,0,1.59.19,2.34.58,3.49,1.85,7.06,3.78,10.62,5.73,2.42,1.33,3.31,4.36,1.98,6.79-1.33,2.42-4.36,3.31-6.79,1.98-3.52-1.93-7.06-3.83-10.51-5.67-2.44-1.29-3.37-4.32-2.07-6.76Z"/>
  <path class="cls-1" d="M246.23,367.13c3.79-.02,7.63-.27,11.39-.73.21-.03.41-.04.62-.04,2.49,0,4.64,1.86,4.96,4.39.34,2.74-1.61,5.24-4.35,5.57-4.15.51-8.37.78-12.55.81-2.8.04-5.01-2.21-5.03-4.97s2.21-5.01,4.97-5.03Z"/>
  <path class="cls-1" d="M286.57,103.92c-3.06-2.39-6.24-4.73-9.45-6.98-2.26-1.58-2.81-4.7-1.22-6.96.97-1.39,2.52-2.13,4.1-2.13.99,0,1.99.29,2.87.91,3.34,2.34,6.66,4.79,9.85,7.28,2.18,1.7,2.57,4.84.87,7.02-1.7,2.18-4.84,2.57-7.02.87Z"/>
  <path class="cls-1" d="M237.41,230.61c-2.75.32-5.23-1.63-5.56-4.37-.33-2.74,1.63-5.23,4.37-5.56,4.04-.48,8.23-.78,12.44-.88.04,0,.08,0,.12,0,2.71,0,4.93,2.16,5,4.88.07,2.76-2.12,5.05-4.88,5.12-3.89.09-7.76.37-11.49.81Z"/>
  <path class="cls-1" d="M211.01,360.91c.59,0,1.19.11,1.78.33,3.48,1.33,7.13,2.45,10.84,3.34,2.69.64,4.34,3.34,3.7,6.02-.64,2.69-3.33,4.34-6.02,3.7-4.13-.99-8.2-2.24-12.08-3.72-2.58-.98-3.88-3.87-2.89-6.45.76-1.99,2.66-3.22,4.67-3.22Z"/>
  <path class="cls-1" d="M181.18,341.31c1.33,0,2.66.53,3.65,1.58,2.01,2.14,4.16,4.15,6.39,5.98.63.51,1.26,1.02,1.9,1.51,2.19,1.68,2.61,4.82.93,7.01-1.68,2.19-4.82,2.61-7.01.93-.73-.56-1.45-1.13-2.17-1.72-2.57-2.1-5.04-4.41-7.34-6.86-1.89-2.01-1.79-5.18.22-7.07.97-.91,2.19-1.36,3.42-1.36Z"/>
  <path class="cls-1" d="M573.24,369.22c-3.2-2.26-6.49-4.56-9.79-6.83-2.27-1.57-2.85-4.68-1.28-6.95.97-1.41,2.53-2.16,4.12-2.16.98,0,1.97.29,2.83.88,3.33,2.29,6.66,4.62,9.89,6.91,2.25,1.6,2.79,4.72,1.19,6.97s-4.72,2.79-6.97,1.19Z"/>
  <path class="cls-1" d="M170.9,255.56c2.57-3.29,5.48-6.45,8.65-9.4.96-.9,2.19-1.34,3.4-1.34,1.34,0,2.68.54,3.66,1.59,1.88,2.02,1.77,5.19-.25,7.07-2.79,2.59-5.34,5.37-7.58,8.24-1.7,2.18-4.84,2.56-7.02.86-2.18-1.7-2.56-4.84-.86-7.02Z"/>
  <path class="cls-1" d="M0,40.04C22.46,30.95,50.21,15.74,67.22,0l-12.36,37.59c.05.27.08.55.08.83,0,.25-.04.49-.07.73l14.59,36.9C51.56,61.34,22.96,47.8,0,40.04Z"/>
</svg>