<?xml version="1.0" encoding="UTF-8"?>
<svg id="Laag_1" data-name="Laag 1" xmlns="http://www.w3.org/2000/svg" version="1.1" viewBox="0 0 496.46 497.34">
  <defs>
    <style>
      .cls-1 {
        fill: #fff;
      }

      .cls-1, .cls-2, .cls-3, .cls-4 {
        fill-rule: evenodd;
        stroke-width: 0px;
      }

      .cls-2 {
        fill: #8a3926;
      }

      .cls-3 {
        fill: #e83a8d;
      }

      .cls-4 {
        fill: #f07d1a;
      }
    </style>
  </defs>
  <path class="cls-3" d="M277.76,17.97c7.64,16.37,4.37,36.54-8.63,50.71-11.36,12.65-30.22,15.21-44.53,6.02,8.89,14.82,13.57,27.09,7.75,44.22,6.16-1.46,12.35-2.78,18.56-3.97,14.76-3.24,29.82-4.95,44.94-5.11,16.21-.49,31.45,5.26,36.25,22.27l26.59,82.79c1.59,4.01,2.51,8.26,2.71,12.57.44,7.27-6.2,16.49-11.18,21.18l32.64,154.94c2.85,10.35,3.93,21.1,3.22,31.79,57.29-42.3,94.45-110.31,94.45-187,0-118.29-88.42-215.93-202.77-230.44h0Z"/>
  <path class="cls-4" d="M233.8,480.26c-3.76-4.49-6.96-9.78-9.47-15.91l-66.6-155.32-2.4-.37c-11.73-1.53-19.58-9.35-23.32-21.38l-21.52-69.61c-2.98-10.27-7.36-23.03-3.79-33.56,2.12-5.88,5.89-11.01,10.86-14.79l10.11-7.64c9.02-6,18.39-11.44,28.08-16.29-17.71,6.93-37.86.58-48.4-15.26-14.05-21.16-8.39-49.68,12.66-63.89,9.95-8.45,22.82-12.67,35.85-11.73,10.59.93,20.52,5.54,28.07,13.03-8.18-12.29-8.63-28.35-2.8-41.6C85.56,54.73,15.93,143.44,15.93,248.4c0,123.45,96.3,224.41,217.87,231.86h0Z"/>
  <path class="cls-1" d="M42.92,168.95c1.28-4.4,2.15-6.19,3.84-7.4,1.79-1.52,3.71-2.33,6.06-2.32,1.33.05,2.26.32,5.98,1.4l30.04,8.77c4.34,1.27,4.95,1.45,6.1,2.12,3.57,2.75,4.51,6.43,2.95,11.77l-3.3,11.31c-2.39,8.17-6.48,14.13-12.68,18.12-6.92,4.12-15.36,5.4-23.1,3.14-7.43-2.17-13.85-7.8-17.16-14.9-2.4-4.45-3.5-9.89-3.05-14.87.33-2.29,1.03-5.84,2.13-9.61l2.2-7.54h0ZM57.8,180.12c-1.53,6.37-1.98,7.95-1.08,10.6,1.12,3.06,3.98,5.94,7.39,6.93,4.03,1.18,8.38.06,11.03-3.26,1.39-1.3,2.25-3.09,3.26-6.55.09-.31.28-.94.46-1.57l-21.06-6.15h0Z"/>
  <path class="cls-1" d="M37.31,226.4c4.85-3.59,8.72-4.9,16.46-4.88l20,.03c5.16,0,6.77.67,8.71,2.31,2.26,1.64,3.54,4.59,3.54,7.53,0,2.29-.98,5.24-2.92,6.87-1.94,1.96-3.88,2.61-8.07,2.6l-22.26-.04c-4.19,0-6.78,1.95-6.78,5.23,0,3.27,2.57,4.91,6.44,4.92l22.58.04c4.2,0,5.48.66,7.42,2.3,2.26,1.64,3.54,4.59,3.54,7.21,0,2.94-1.3,5.89-3.24,7.52-2.26,1.63-3.88,2.28-9.04,2.28l-20-.03c-7.74-.01-13.22-1.99-17.73-6.25-5.48-4.59-8.37-11.47-8.36-18.02.01-7.86,3.57-15.05,9.71-19.62h0Z"/>
  <path class="cls-1" d="M41.35,318.01l15.01-18.4-11.54,3.03c-3.74.98-5.45.8-8-.1-2.24-.98-4.15-3.31-4.74-5.67-.66-2.65-.08-5.64,1.66-7.98,1.89-1.75,3.3-2.75,7.35-3.82l34.62-9.09c5.93-1.56,10.55,1,11.95,6.61.59,2.36.17,4.67-1.88,7.1l-14.39,18.24,10.29-2.7c3.43-.9,5.45-.8,7.61-.11,2.55.9,4.77,3.15,5.51,6.1.59,2.36.24,4.97-1.5,7.31-1.5,1.97-3.23,3.05-6.66,3.95l-33.68,8.84c-4.36,1.15-6.38,1.05-8.62.06-2.55-.9-4.46-3.23-5.05-5.59-.74-2.95,0-5.34,2.05-7.77h0Z"/>
  <path class="cls-1" d="M71.8,379.07l6.02-21.83-8.07,5.9c-5.21,3.81-10.91,3.11-14.39-1.65-3.48-4.76-2.21-10.14,3-13.95l29.43-21.51c4.95-3.62,10.65-2.92,13.94,1.57,1.55,2.11,2.5,5.06,1.9,7.53-.6,2.46-1.84,4.59-4.45,6.49l-7.29,5.33,18.42-.49c3.5-.13,6.09,1.23,8.02,3.87,3.09,4.23,2.21,10.14-1.95,13.18-1.3.95-3.25,1.57-4.68,1.8l-16.99.26-5.03,18.27c-.27,1.82-1.64,3.22-3.2,4.37-4.17,3.05-10.06,2.08-13.15-2.14-1.55-2.11-2.31-4.8-1.52-7h0Z"/>
  <path class="cls-1" d="M89.43,399.99c-.1-2.76.99-4.39,3.64-7.21l24.12-25.59c3.32-3.52,4.66-4.47,7.64-4.77,2.52-.29,5.09.81,6.99,2.6,2.15,2.02,3.39,4.52,3.25,7.05.1,2.76-.75,4.61-4.07,8.14l-24.12,25.59c-2.43,2.58-4.7,3.55-7,3.6-2.52.29-5.55-.8-7.21-2.37-1.91-1.8-3.16-4.76-3.25-7.05h0Z"/>
  <path class="cls-1" d="M140.03,438.83l-2.72-24.12-6.31,10.13c-2.05,3.29-3.18,4.48-5.76,5.53-2.69.6-5.6.32-8.1-1.24-2.5-1.56-4.32-4.21-4.51-6.99-.2-2.78.38-4.32,2.59-7.88l18.93-30.4c3.24-5.2,8.62-6.41,13.62-3.3,2.5,1.56,3.66,3.42,4.24,6.82l3.06,23.57,5.63-9.04c1.88-3.01,3.18-4.48,5.31-5.43,2.58-1.05,6.21-.69,8.71.86,2.5,1.56,4.21,3.76,4.41,6.54.37,2.51-.1,4.5-1.98,7.51l-18.41,29.58c-2.39,3.83-3.69,5.3-6.1,6.08-2.86.88-5.77.59-8.27-.97-2.5-1.56-4.04-4.04-4.34-7.26h0Z"/>
  <path class="cls-1" d="M428.7,372.91c-2.41,3.8-3.54,4.99-5.2,5.84-2.54,1.05-4.3,1.46-6.35.55-1.24-.41-2.04-.91-5.26-2.95l-25.96-16.44c-4.02-2.54-4.28-2.71-5.18-3.66-2.79-3.29-2.51-7.29.25-11.64l6.19-9.78c4.47-7.06,9.96-11.58,16.89-13.65,7.38-2.18,15.69-1.1,22.39,3.14,6.69,4.24,10.96,11.12,12.58,18.62.61,4.95.18,10.38-1.6,14.97-.94,2.07-2.39,4.96-4.62,8.49l-4.13,6.52h0ZM417.96,358.49c3.44-5.43,4.03-6.96,3.9-9.71-.06-3.46-1.97-6.96-4.92-8.82-3.48-2.2-8.33-2.23-11.56-.09-1.83,1.12-3.13,2.58-5.02,5.57l-.86,1.36,18.47,11.69h0Z"/>
  <path class="cls-1" d="M439.31,321.53c-15.92,2.76-30.66-8.06-33.51-24.53-2.8-16.15,7.75-31.36,23.36-34.06,15.92-2.76,31.28,7.96,34.08,24.11,2.85,16.47-8.01,31.73-23.93,34.48h0ZM436.13,303.16c6.24-1.08,10.36-7.01,9.32-13.03-1.04-6.02-6.91-10.22-12.85-9.19-5.93,1.03-10.05,6.96-9,12.98,1.04,6.02,6.6,10.27,12.53,9.25h0Z"/>
  <path class="cls-1" d="M461.91,223.31l-17.92,16.09,12.01-.85c3.79-.27,5.42.26,7.43,1.73,2.32,1.45,3.79,4.24,3.97,6.81.2,2.88-1.19,5.56-3.27,7.64-1.78,1.74-3.34,2.17-7.45,2.46l-35.39,2.51c-5.69.4-9.75-3.18-10.16-8.95-.18-2.57.61-4.88,3-6.98l17.26-16.37-10.74.76c-3.79.27-5.42-.26-7.4-1.41-2.64-1.42-4.11-4.22-4.32-7.11-.2-2.89.59-5.2,2.66-7.28,1.78-1.74,3.63-2.51,7.11-2.76l34.13-2.42c4.42-.31,6.05.22,8.38,1.66,2.32,1.45,3.77,3.92,3.97,6.81.2,2.89-.88,5.54-3.27,7.64h0Z"/>
  <path class="cls-1" d="M450.1,187.03c-2.7,4.99-6.12,7.48-12.83,10.33l-18.08,7.67c-4.96,2.1-6.25,2.3-8.5,1.86-2.79-.91-5.09-3.08-6.1-5.45-1-2.37-1.13-5.11,0-7.33,1-2.52,2.5-3.85,6-5.34l20.42-8.66c3.79-1.61,5.37-4.37,4.12-7.33-1.38-3.26-4.47-4.04-7.97-2.56l-20.71,8.78c-3.79,1.61-4.79,1.68-7.46,1.07-2.38-.74-4.55-2.61-5.68-5.27-1-2.37-.97-5.53.16-7.75,1-2.52,2.62-3.56,7-5.41l18.38-7.79c7-2.97,12.71-3.29,18.3-1.47,6.42,2.17,11.97,7.14,14.61,13.36,2.88,6.8,2.15,14.8-1.64,21.29h0Z"/>
  <path class="cls-1" d="M420.52,117.52c-.59,2.22-1.57,3.5-4.44,5.99l-21.28,18.5,3.37,3.88c2.11,2.43,2.9,4.3,2.76,6.55-.17,2.7-.97,4.68-2.64,6.13-2.39,2.08-6.5,2.67-8.9,1.35-1.98-.83-2.4-1.32-7.47-7.14l-12.23-14.07c-1.69-1.94-2.74-3.15-3.16-3.64-.42-.49-.63-.73-1.06-1.21-2.47-3.81-1.74-8.28,1.36-10.98,1.91-1.66,4.46-2.6,6.92-2.18,1.8.14,3.96,1.66,6.07,4.09l2.95,3.4,21.04-18.29c2.63-2.29,4.27-3.29,6.55-3.57,2.97-.45,5.85.45,7.96,2.88,2.11,2.43,2.6,5.4,2.19,8.32h0Z"/>
  <path class="cls-1" d="M384.66,94.13c-3.06,3.64-8.25,3.83-11.7.94-1.72-1.45-2.79-3.17-3.54-6.28-.92-4.91-1.21-5.56-2.44-6.6-.99-.83-2.34-.72-3.35.5-.81.97-.98,1.66-.64,2.77.29.66.33,1.11,1.94,3.69.82,1.52,1.85,2.8,2.43,4.11,4.57,7.56,4.06,14.16-.83,19.99-6.93,8.25-18.01,8.46-27.37.61-7.88-6.61-10.53-15.46-6.05-20.79,2.65-3.15,6.9-3.72,10.1-1.03,1.97,1.65,3.04,3.38,3.87,7.39.46,2.45.99,3.32,1.73,3.94.98.83,2.58.93,3.4-.05,1.22-1.46.64-2.77-1.79-6.87-2.88-4.07-4.7-8.9-5.44-12.01-.88-4.46.66-9.79,4.12-13.91,3.06-3.64,7.59-6.04,12.54-6.44,5.15-.64,10.31,1.21,15.73,5.76,9.11,7.65,12.18,18.49,7.29,24.32h0Z"/>
  <path class="cls-4" d="M247.88,374.2c-3.96,1.38-5.75,1.69-7.56,1.07-2.09-.52-3.7-1.52-4.95-3.27-.67-1.02-.96-1.85-2.13-5.2l-9.43-27.04c-1.36-3.9-1.55-4.46-1.66-5.67.15-4.12,2.4-6.78,7.2-8.45l10.18-3.55c7.35-2.56,13.97-2.68,20.24-.17,6.74,2.97,12.18,8.57,14.61,15.54,2.33,6.69,1.55,14.46-1.99,20.7-2.04,4.15-5.51,7.86-9.46,10.17-1.88.97-4.9,2.33-8.29,3.51l-6.79,2.36h0ZM248.29,357.18c5.56-2.25,6.97-2.74,8.47-4.82,1.68-2.46,2.31-6.12,1.24-9.18-1.26-3.62-4.41-6.28-8.29-6.49-1.7-.34-3.5-.03-6.61,1.05-.28.1-.85.3-1.42.49l6.61,18.95h0Z"/>
  <path class="cls-3" d="M296.86,360.67c-3.96,1.38-5.47,1.59-7.18,1.25-2.46-.71-3.98-1.43-4.95-3.28-.67-1.02-.96-1.85-2.13-5.19l-9.42-27.04c-1.46-4.18-1.55-4.46-1.66-5.67-.13-4.02,2.4-6.78,6.92-8.35l10.18-3.55c7.35-2.56,13.97-2.68,20.24-.18,6.65,2.69,12.09,8.29,14.51,15.26,2.43,6.96,1.55,14.46-1.61,20.87-2.42,3.97-5.89,7.68-9.84,9.99-1.88.97-4.62,2.23-8.29,3.52l-6.79,2.36h0ZM297.37,343.92c5.66-1.97,6.97-2.74,8.46-4.82,1.96-2.56,2.59-6.22,1.52-9.29-1.26-3.62-4.79-6.46-8.38-6.77-1.99-.25-3.78.07-6.89,1.15l-1.41.5,6.7,19.23h0Z"/>
  <path class="cls-2" d="M370.5,454.95c9.38-14.83,7.99-28.28,3.65-48.58,0,0-31.48-146.63-32.46-152.91-.98-6.28-1.49-7.29.35-8.82,1.84-1.53,4.83-4.83,7.4-8.39,2.57-3.56,4.85-6.06.81-17.68-4.04-11.62-23.26-72.62-26.79-83.42-3.53-10.81-9.59-22.8-70.87-10.87-61.28,11.93-99.99,31.31-120.1,45.43-20.12,14.11-22.19,18.66-13.55,46.3,8.64,27.64,17.74,58.78,21.43,69.3,3.69,10.53,9.34,14.36,15.99,15.21,6.64.85,7.44.77,8.84,4.33,1.39,3.56,61.18,142.91,67.23,156.79,4.44,10.19,11.34,20.79,26.56,26.59-3.56.16-7.15.24-10.75.24-132.21,0-239.38-107.17-239.38-239.38,0-110.65,75.07-203.76,177.06-231.19,2.75-4.25,5.87-8.06,9.29-11.37-11.13,2.42-22.1,5.62-32.86,9.59-30.67,11.33-58.8,28.6-82.77,50.84-23.97,22.19-43.33,48.88-56.99,78.55C7.64,178.02-.06,213.36,0,249.12c0,29.36,5.09,58.33,15.26,85.89,11.33,30.67,28.6,58.8,50.84,82.77,22.19,23.97,48.88,43.33,78.55,56.99,32.48,14.94,67.83,22.64,103.58,22.58,29.36,0,58.33-5.09,85.89-15.26,30.67-11.33,58.8-28.6,82.77-50.84,51.15-47.4,79.69-113.41,79.57-182.14.03-29.3-5.13-58.38-15.26-85.88h0c-11.33-30.68-28.6-58.81-50.84-82.78-22.19-23.97-48.88-43.33-78.55-56.99-28-12.87-58.12-20.38-88.79-22.16,4.04,2.83,7.41,6.11,10.13,9.72,120.5,12.46,214.46,114.31,214.46,238.1,0,87.53-46.98,164.1-117.11,205.84h0ZM144.21,198.63l-21.68-3.84c7.11-8.28,34.77-32.46,102.66-51.71,67.89-19.24,89.13-7.98,89.13-7.98l-15,13.87s-34.58,2.24-77.64,14.08c-43.07,11.83-77.48,35.58-77.48,35.58h0ZM316.92,153.05s20.69,63.88,22.23,68.47c1.54,4.59,2.33,7.53-1.26,11.17-3.59,3.63-19.05,19.33-63.96,36.52-44.91,17.19-87.33,21.58-102.26,20.47-14.93-1.11-17.49-1.73-19.7-8.96-2.21-7.24-21.65-70.11-21.65-70.11,115.38,2.77,186.6-57.55,186.6-57.55h0ZM363.54,410.74c4.13,16.47,3,35.45-10.41,47.02-13.42,11.57-47.56,24.2-68.24,22.67-20.68-1.53-34.35-8.03-41.95-24.33-7.6-16.3-65.39-153.57-65.39-153.57,103.12-11.14,152.28-48.75,152.28-48.75l33.71,156.97h0Z"/>
  <path class="cls-2" d="M177.83,120.77c-3.44,4.47-2.53,7.71.1,10.28,2.62,2.57,11.53.4,13.48-12.31,1.95-12.7-.07-26.29-10.04-39.87-9.97-13.59-32.07-23.17-56.1-4.88-24.02,18.29-17.21,41.32-10.63,51.92,6.58,10.59,25.23,20.06,42.01,9.9,16.78-10.16,14.3-25.37,8.93-34.86-5.36-9.49-16.6-9.75-21.55-7.38-4.94,2.38-10.28,6.31-7.19,11.31,3.09,4.99,5.92,3.9,10.89,1.09,4.97-2.81,10.98-.05,10.44,11.03-.53,11.08-24.86,15.92-32.71,3.06-7.86-12.85-6.65-25.18,11.51-38.42,18.16-13.24,35.52,1.91,41.18,15.18,5.66,13.27-.33,23.94-.33,23.94h0Z"/>
  <path class="cls-2" d="M209.37,90.62c6.45,8.42,4.58,20.32,2.33,24.41-2.25,4.09-1.93,8.51,1.62,10.28,3.55,1.78,7.99,3.01,11.99-14.02,4.01-17.03-11.57-36.81-21.4-50.24-9.83-13.43-2.84-29.95,6.19-38.67,9.02-8.72,31.68-14.4,43.24-2.86,11.56,11.54,9.22,26.1.21,35.81-9.01,9.71-16.96,5.16-19.29,1.45-2.32-3.7-2.76-7.56.92-11.54,3.68-3.98,13.48,3.89,14.79-5.03,1.31-8.92-14.75-10.2-22.24-4.54-7.49,5.65-9.91,20.78-2.58,28.98,7.34,8.19,23.97,11.74,37.35-1.28,13.38-13.02,11.38-30.78,6.48-42.69-4.89-11.91-34.41-31.5-60.62-13.21-26.21,18.29-25.27,44.1-17.7,55.06,7.56,10.96,18.71,28.1,18.71,28.1h0Z"/>
</svg>